<svg width="24" height="24" viewBox="0 0 24 24" fill="none" xmlns="http://www.w3.org/2000/svg">
<path fill-rule="evenodd" clip-rule="evenodd" d="M4.5 1C2.567 1 1 2.567 1 4.5V19.5C1 21.433 2.567 23 4.5 23H19.5C21.433 23 23 21.433 23 19.5V4.5C23 2.567 21.433 1 19.5 1H4.5ZM20 7V4.5C20 4.22386 19.7761 4 19.5 4H4.5C4.22386 4 4 4.22386 4 4.5V19.5C4 19.7761 4.22386 20 4.5 20H19.5C19.7761 20 20 19.7761 20 19.5V17H12.5C11.1193 17 10 15.8807 10 14.5V9.5C10 8.11929 11.1193 7 12.5 7H20ZM20 14V10H13V14H20Z" fill="#615F6D"/>
</svg>
